<?xml version="1.0" encoding="UTF-8" standalone="no"?>
<!-- Created with Inkscape (http://www.inkscape.org/) -->
<svg
   xmlns:dc="http://purl.org/dc/elements/1.1/"
   xmlns:cc="http://creativecommons.org/ns#"
   xmlns:rdf="http://www.w3.org/1999/02/22-rdf-syntax-ns#"
   xmlns:svg="http://www.w3.org/2000/svg"
   xmlns="http://www.w3.org/2000/svg"
   xmlns:sodipodi="http://sodipodi.sourceforge.net/DTD/sodipodi-0.dtd"
   xmlns:inkscape="http://www.inkscape.org/namespaces/inkscape"
   width="48"
   height="48"
   id="svg1901"
   sodipodi:version="0.32"
   inkscape:version="0.46"
   sodipodi:docname="conman_new.svg"
   sodipodi:docbase="/home/tsoots/ohj/translations/po"
   version="1.0"
   inkscape:output_extension="org.inkscape.output.svg.inkscape">
  <defs
     id="defs1903">
    <inkscape:perspective
       sodipodi:type="inkscape:persp3d"
       inkscape:vp_x="0 : 526.18109 : 1"
       inkscape:vp_y="6.1230318e-14 : 1000 : 0"
       inkscape:vp_z="744.09448 : 526.18109 : 1"
       inkscape:persp3d-origin="372.04724 : 350.78739 : 1"
       id="perspective7" />
    <inkscape:perspective
       id="perspective2389"
       inkscape:persp3d-origin="372.04724 : 350.78739 : 1"
       inkscape:vp_z="744.09448 : 526.18109 : 1"
       inkscape:vp_y="0 : 1000 : 0"
       inkscape:vp_x="0 : 526.18109 : 1"
       sodipodi:type="inkscape:persp3d" />
  </defs>
  <sodipodi:namedview
     id="base"
     pagecolor="#ffffff"
     bordercolor="#666666"
     borderopacity="1.0"
     inkscape:pageopacity="0.0"
     inkscape:pageshadow="2"
     inkscape:zoom="6.7916667"
     inkscape:cx="25.637585"
     inkscape:cy="1.0264477"
     inkscape:document-units="px"
     inkscape:current-layer="layer1"
     gridtolerance="10000"
     inkscape:window-width="877"
     inkscape:window-height="739"
     inkscape:window-x="177"
     inkscape:window-y="0"
     showgrid="false">
    <inkscape:grid
       type="xygrid"
       id="grid2380"
       visible="true"
       enabled="true" />
  </sodipodi:namedview>
  <metadata
     id="metadata1906">
    <rdf:RDF>
      <cc:Work
         rdf:about="">
        <dc:format>image/svg+xml</dc:format>
        <dc:type
           rdf:resource="http://purl.org/dc/dcmitype/StillImage" />
      </cc:Work>
    </rdf:RDF>
  </metadata>
  <g
     inkscape:label="Kirja"
     inkscape:groupmode="layer"
     id="layer1"
     style="opacity:1">
    <path
       style="fill:#a40000;fill-rule:evenodd;stroke:#000000;stroke-width:1px;stroke-linecap:butt;stroke-linejoin:miter;stroke-opacity:1;display:inline"
       d="M 12.348466,5.2909498 C 11.970552,19.528591 9.5141093,29.477787 7.2466254,41.656975 C 2.1447848,45.087732 1.7668713,39.941596 1.7668713,39.941596 L 9.7030673,9.2363201 C 9.7030673,9.2363201 10.647852,5.2909498 12.348466,5.2909498 z"
       id="path3256"
       sodipodi:nodetypes="ccccc" />
    <path
       style="fill:#eeeeec;fill-rule:evenodd;stroke:#000000;stroke-width:1px;stroke-linecap:butt;stroke-linejoin:miter;stroke-opacity:1;display:inline"
       d="M 5.1680972,35.65315 C 5.1680972,35.65315 2.9006128,36.682377 1.9558281,39.426981 C 1.0110432,42.171588 4.6012271,44.916193 4.6012271,44.916193 L 45.038034,44.916193 C 45.038034,44.916193 40.880979,41.828512 41.825764,39.941596 C 42.77055,38.05468 45.604906,35.824689 45.604906,35.824689 L 5.1680972,35.65315 z"
       id="path3254"
       sodipodi:nodetypes="csccscc" />
    <path
       style="fill:#eeeeec;fill-rule:evenodd;stroke:#000000;stroke-width:1px;stroke-linecap:butt;stroke-linejoin:miter;stroke-opacity:1;display:inline"
       d="M 5.5690515,35.621964 C 9.6365978,19.588196 9.7261087,18.296642 12.182549,5.4313019 C 13.883162,5.4313019 38.447577,4.9166876 38.447577,4.9166876 C 41.47089,18.125103 45.816903,35.621963 45.816903,35.621963 C 32.99438,35.632171 18.129726,35.87425 5.5690515,35.621964 z"
       id="path3261"
       sodipodi:nodetypes="ccccc" />
    <path
       style="fill:#cc0000;fill-rule:evenodd;stroke:#000000;stroke-width:1px;stroke-linecap:butt;stroke-linejoin:miter;stroke-opacity:1;display:inline"
       d="M 11.781594,5.4624883 L 4.9791405,35.310074 L 47.116561,31.707778 L 38.802452,4.2617228 L 11.781594,5.4624883 z"
       id="path3259"
       sodipodi:nodetypes="ccccc" />
    <g
       id="g3273"
       style="fill:#c4a000"
       transform="matrix(0.6352615,-3.3850353e-2,3.3850353e-2,0.6352615,12.947767,-28.045088)">
      <path
         d="M 8.633823,83.67013 C 8.8687343,84.778838 10.161756,85.511522 11.053482,86.039622 C 12.461481,86.776096 14.008553,87.10133 15.57531,87.259265 C 16.094474,87.292084 16.289276,87.331368 16.819881,87.247637 C 18.121091,87.042303 19.360045,86.501117 20.572795,86.013209 C 21.309801,85.666 22.067203,85.363184 22.800386,85.007657 C 22.990399,84.915518 23.54312,84.606639 23.364366,84.719076 C 23.001193,84.947513 22.640508,85.187545 22.24606,85.35633 C 22.003612,85.460074 22.684363,85.06296 22.903514,84.916276 C 23.647752,84.330737 24.38014,83.707479 25.003323,82.990371 C 25.676108,82.216185 26.212749,81.353451 26.727798,80.471668 C 27.150542,79.599181 27.59586,78.68169 27.613284,77.690547 C 27.622926,77.142098 27.549947,76.954897 27.433721,76.431695 C 27.284568,76.022414 27.198003,75.707312 26.944119,75.341233 C 26.240792,74.3271 25.165903,73.604567 24.16712,72.917116 C 22.74729,71.982483 21.209634,71.626904 19.552664,71.398439 C 18.082,71.242501 16.600697,71.228708 15.123244,71.226457 C 13.895523,71.239995 12.668519,71.286167 11.443585,71.183595 C 11.297027,71.154893 11.145867,71.143878 11.003913,71.097489 C 10.830037,71.040669 10.666164,70.956318 10.501885,70.875859 C 9.2728329,70.2739 8.3070109,69.346852 7.3303922,68.407455 C 6.8576008,67.883385 6.0254241,66.995023 5.6147818,66.407935 C 5.1712954,65.773891 4.7338107,64.911473 4.4392106,64.194514 C 4.2990386,63.853382 4.1587316,63.509344 4.0713112,63.151047 C 3.9882052,62.810432 3.9773048,62.456163 3.9303015,62.108722 C 4.0141564,61.230803 3.9920289,60.929532 4.2618688,60.100264 C 4.3497002,59.830341 4.4406231,59.554778 4.5949774,59.316561 C 4.758936,59.063523 4.9523636,58.814233 5.2033887,58.647208 C 7.3855882,57.195234 7.1411895,57.370775 8.998465,56.88684 C 10.381583,56.659677 11.782581,56.554339 13.183388,56.533591 C 13.564387,56.527947 13.946596,56.514236 14.326462,56.544127 C 15.045663,56.600719 15.598639,56.760203 16.290803,56.926483 C 17.017736,57.232396 17.851496,57.682494 18.289304,58.377647 C 18.697167,59.025254 18.660664,59.719228 18.62142,60.44087 C 18.447954,61.328586 18.294378,62.378346 17.726106,63.119708 C 17.581316,63.308599 17.39825,63.464796 17.234322,63.637341 C 17.036231,63.790081 16.846094,63.953733 16.640049,64.095561 C 16.43303,64.238059 16.216149,64.366183 15.996927,64.489082 C 14.51502,65.319864 13.557521,65.922489 12.032759,66.357712 C 11.433289,66.501412 10.8172,66.564975 10.217322,66.706109 C 9.7969003,66.805023 9.7254683,66.842807 9.3170392,66.987059 C 8.5761518,67.293983 7.8512237,67.646459 7.1468936,68.030381 C 6.9743507,68.124432 6.4622113,68.416483 6.6331265,68.319506 C 7.0504112,68.082737 7.4683782,67.847174 7.8860041,67.611008 C 7.3418976,67.960665 6.7786943,68.302057 6.3272799,68.772483 C 6.0957143,69.013802 5.987333,69.182066 5.7904183,69.452324 C 5.451521,70.009867 5.1711242,70.640939 5.1404516,71.303698 C 5.1345522,71.43117 5.1488218,71.558777 5.1530069,71.686316 C 5.184888,71.848977 5.2001211,72.015805 5.2486502,72.174298 C 5.5592193,73.188593 6.2319906,74.079821 6.9444068,74.844012 C 7.472542,75.372399 8.0356769,75.862884 8.5938295,76.358981 L 6.8479449,77.443544 C 6.2842611,76.946792 5.7003959,76.47132 5.220127,75.888115 C 4.547328,75.113001 3.8350433,74.09951 3.454926,73.143064 C 3.3902916,72.980432 3.3571073,72.807 3.3081979,72.638968 C 3.2979746,72.501879 3.2766168,72.365167 3.2775279,72.227701 C 3.2821346,71.532667 3.5715198,70.870636 3.8997469,70.273755 C 4.0743134,70.017546 4.217089,69.790432 4.4234242,69.557553 C 4.8673281,69.056545 5.4425397,68.701765 5.9982967,68.340585 C 7.6047516,67.402557 9.1966915,66.413091 10.934532,65.729379 C 11.822404,65.442675 12.739158,65.306578 13.649605,65.111349 C 14.111535,64.973388 14.168167,64.96737 14.630042,64.782295 C 14.823931,64.704603 15.361982,64.396628 15.206086,64.535644 C 14.900577,64.808072 14.499676,64.95199 14.169074,65.19335 C 13.772871,65.482601 15.833672,64.203688 15.405648,64.395434 C 15.565075,64.242713 15.744053,64.108081 15.883928,63.937273 C 16.428599,63.272153 16.649591,62.146846 16.841728,61.331276 C 16.903375,60.671968 16.974884,59.994367 16.612827,59.3918 C 16.201118,58.706598 15.43289,58.298266 14.726318,58.005574 C 13.943353,57.801613 13.66859,57.698414 12.837603,57.620717 C 12.476582,57.586962 12.113138,57.58279 11.750548,57.580872 C 10.355551,57.573495 8.9602882,57.68376 7.5929812,57.969209 C 7.1681307,58.101819 6.761633,58.407711 6.3184297,58.367039 C 6.0546682,58.342834 6.9235177,57.651242 6.9698646,57.912026 C 7.0206201,58.197616 6.5165429,58.283821 6.3452412,58.517901 C 5.8018115,59.260486 5.6581542,60.361727 5.5801292,61.243254 C 5.6151429,61.582966 5.6153034,61.928102 5.6851702,62.262392 C 5.7598032,62.619486 5.8821688,62.965921 6.0114644,63.30705 C 6.6259034,64.928167 7.6135344,66.264759 8.8473228,67.4702 C 9.1639082,67.754275 9.4667244,68.054486 9.7970791,68.322424 C 10.757765,69.101597 11.88113,69.785926 13.116628,69.990468 C 14.303357,70.101289 15.495046,70.08183 16.685779,70.091695 C 18.17475,70.095483 19.671812,70.046816 21.148812,70.274784 C 22.779151,70.540588 24.403855,70.903831 25.761859,71.901728 C 26.466312,72.408906 26.655585,72.529043 27.33767,73.087643 C 27.74256,73.419231 28.344535,73.914887 28.674254,74.347074 C 28.978905,74.746404 29.036318,75.027755 29.193908,75.48677 C 29.336896,76.156377 29.462818,76.821704 29.335219,77.509297 C 29.197371,78.252113 28.771059,79.030214 28.454693,79.704441 C 27.932734,80.586587 27.390107,81.475625 26.735196,82.268301 C 26.14105,82.987429 25.422032,83.596936 24.718232,84.202964 C 22.977469,85.440017 21.07655,86.38018 19.100528,87.170154 C 17.868947,87.650369 16.535419,88.223445 15.223736,88.423982 C 14.669,88.508793 14.475065,88.462957 13.942252,88.416816 C 12.383898,88.207287 10.858644,87.809437 9.4569124,87.076688 C 8.6362999,86.61673 8.6895152,86.690077 7.9822141,86.135771 C 7.4801749,85.742327 6.9401546,85.307138 6.7142851,84.688457 L 8.633823,83.67013 z"
         id="path3267"
         style="opacity:1;fill:#c4a000;stroke:none;stroke-width:1.54200006;stroke-miterlimit:4;stroke-dasharray:none;stroke-opacity:1" />
      <path
         d="M 21.580903,64.531099 C 21.428055,65.145325 21.366387,65.78059 21.310969,66.409962 C 21.096443,68.909015 21.133161,71.418163 21.141493,73.923573 C 21.20589,76.417151 21.157688,75.213209 21.279387,77.535664 L 19.81755,78.286246 C 19.79313,75.922827 19.810016,77.141963 19.765204,74.628861 C 19.693932,72.993605 19.680244,72.540579 19.589746,70.962938 C 19.520366,69.753423 19.428464,68.541122 19.477295,67.328637 C 19.506901,66.709016 19.560631,66.092568 19.610866,65.47483 L 21.580903,64.531099 z"
         id="path3269"
         style="opacity:1;fill:#c4a000;stroke:none;stroke-width:1.54200006;stroke-miterlimit:4;stroke-dasharray:none;stroke-opacity:1" />
      <path
         d="M 22.947251,60.243787 C 24.096972,59.816296 25.179382,59.234423 26.314798,58.774524 C 27.288738,58.410371 28.199564,57.901699 29.159846,57.507152 C 29.645002,57.307819 29.951615,57.213408 30.440724,57.049469 C 30.61276,56.998783 30.784797,56.948097 30.956834,56.897412 L 29.34465,58.13963 C 29.183226,58.185502 29.021802,58.231375 28.860378,58.277248 C 28.32109,58.456038 28.171046,58.49547 27.6267,58.722133 C 26.666877,59.121797 25.748446,59.617395 24.775991,59.988613 C 23.593517,60.499898 22.439775,61.076457 21.247072,61.564649 L 22.947251,60.243787 z"
         id="path3271"
         style="opacity:1;fill:#c4a000;stroke:none;stroke-width:1.54200006;stroke-miterlimit:4;stroke-dasharray:none;stroke-opacity:1" />
    </g>
  </g>
</svg>
