<?xml version="1.0" encoding="UTF-8" standalone="no"?>
<!-- Created with Inkscape (http://www.inkscape.org/) -->

<svg
   xmlns:dc="http://purl.org/dc/elements/1.1/"
   xmlns:cc="http://creativecommons.org/ns#"
   xmlns:rdf="http://www.w3.org/1999/02/22-rdf-syntax-ns#"
   xmlns:svg="http://www.w3.org/2000/svg"
   xmlns="http://www.w3.org/2000/svg"
   xmlns:xlink="http://www.w3.org/1999/xlink"
   xmlns:sodipodi="http://sodipodi.sourceforge.net/DTD/sodipodi-0.dtd"
   xmlns:inkscape="http://www.inkscape.org/namespaces/inkscape"
   inkscape:export-ydpi="90"
   inkscape:export-xdpi="90"
   inkscape:export-filename="/home/wwwwolf/Development/ConmanDictionary/src/org/beastwithin/conmandictionary/resources/splash.png"
   version="1.1"
   sodipodi:docname="splash.svg"
   inkscape:version="0.47 r22583"
   sodipodi:version="0.32"
   id="svg1901"
   height="304"
   width="404">
  <sodipodi:namedview
     id="base"
     pagecolor="#ffffff"
     bordercolor="#666666"
     borderopacity="1.0"
     inkscape:pageopacity="0.0"
     inkscape:pageshadow="2"
     inkscape:zoom="2.0420792"
     inkscape:cx="202"
     inkscape:cy="152"
     inkscape:document-units="px"
     inkscape:current-layer="layer1"
     inkscape:window-width="1280"
     inkscape:window-height="951"
     inkscape:window-x="0"
     inkscape:window-y="25"
     showgrid="false"
     inkscape:window-maximized="1"
     inkscape:snap-page="false" />
  <defs
     id="defs1903">
    <linearGradient
       id="linearGradient3672">
      <stop
         style="stop-color:#006400;stop-opacity:1"
         offset="0"
         id="stop3674" />
      <stop
         style="stop-color:#556b2f;stop-opacity:1"
         offset="1"
         id="stop3676" />
    </linearGradient>
    <linearGradient
       id="linearGradient3628">
      <stop
         id="stop3630"
         offset="0"
         style="stop-color:#9acd32;stop-opacity:1;" />
      <stop
         id="stop3632"
         offset="1"
         style="stop-color:#f5deb3;stop-opacity:1" />
    </linearGradient>
    <inkscape:perspective
       id="perspective7"
       inkscape:persp3d-origin="372.04724 : 350.78739 : 1"
       inkscape:vp_z="744.09448 : 526.18109 : 1"
       inkscape:vp_y="0 : 1000 : 0"
       inkscape:vp_x="0 : 526.18109 : 1"
       sodipodi:type="inkscape:persp3d" />
    <linearGradient
       gradientUnits="userSpaceOnUse"
       y2="304"
       x2="352.21765"
       y1="0"
       x1="59.598549"
       id="linearGradient3634"
       xlink:href="#linearGradient3628"
       inkscape:collect="always" />
    <linearGradient
       y2="969.59912"
       x2="163.16324"
       y1="859.49908"
       x1="52.75938"
       gradientUnits="userSpaceOnUse"
       id="linearGradient3688"
       xlink:href="#linearGradient3672"
       inkscape:collect="always" />
    <inkscape:perspective
       sodipodi:type="inkscape:persp3d"
       inkscape:vp_x="0 : 526.18109 : 1"
       inkscape:vp_y="0 : 1000 : 0"
       inkscape:vp_z="744.09448 : 526.18109 : 1"
       inkscape:persp3d-origin="372.04724 : 350.78739 : 1"
       id="perspective7-7" />
    <inkscape:perspective
       sodipodi:type="inkscape:persp3d"
       inkscape:vp_x="0 : 0.5 : 1"
       inkscape:vp_y="0 : 1000 : 0"
       inkscape:vp_z="1 : 0.5 : 1"
       inkscape:persp3d-origin="0.5 : 0.33333333 : 1"
       id="perspective4122" />
    <inkscape:perspective
       sodipodi:type="inkscape:persp3d"
       inkscape:vp_x="0 : 0.5 : 1"
       inkscape:vp_y="0 : 1000 : 0"
       inkscape:vp_z="1 : 0.5 : 1"
       inkscape:persp3d-origin="0.5 : 0.33333333 : 1"
       id="perspective4161" />
    <linearGradient
       y2="969.59912"
       x2="163.16324"
       y1="859.49908"
       x1="52.75938"
       gradientUnits="userSpaceOnUse"
       id="linearGradient3688-7"
       xlink:href="#linearGradient3672-6"
       inkscape:collect="always"
       gradientTransform="translate(-0.24425694,-748.98136)" />
    <linearGradient
       id="linearGradient3672-6">
      <stop
         style="stop-color:#006400;stop-opacity:1"
         offset="0"
         id="stop3674-7" />
      <stop
         style="stop-color:#556b2f;stop-opacity:1"
         offset="1"
         id="stop3676-8" />
    </linearGradient>
    <linearGradient
       y2="969.59912"
       x2="163.16324"
       y1="859.49908"
       x1="52.75938"
       gradientUnits="userSpaceOnUse"
       id="linearGradient4169"
       xlink:href="#linearGradient3672-6"
       inkscape:collect="always" />
    <linearGradient
       id="linearGradient4171">
      <stop
         style="stop-color:#006400;stop-opacity:1"
         offset="0"
         id="stop4173" />
      <stop
         style="stop-color:#556b2f;stop-opacity:1"
         offset="1"
         id="stop4175" />
    </linearGradient>
    <linearGradient
       y2="969.59912"
       x2="163.16324"
       y1="859.49908"
       x1="52.75938"
       gradientUnits="userSpaceOnUse"
       id="linearGradient4177"
       xlink:href="#linearGradient3672-6"
       inkscape:collect="always" />
    <linearGradient
       id="linearGradient4179">
      <stop
         style="stop-color:#006400;stop-opacity:1"
         offset="0"
         id="stop4181" />
      <stop
         style="stop-color:#556b2f;stop-opacity:1"
         offset="1"
         id="stop4183" />
    </linearGradient>
    <linearGradient
       y2="969.59912"
       x2="163.16324"
       y1="859.49908"
       x1="52.75938"
       gradientUnits="userSpaceOnUse"
       id="linearGradient4185"
       xlink:href="#linearGradient3672-6"
       inkscape:collect="always" />
    <linearGradient
       id="linearGradient4187">
      <stop
         style="stop-color:#006400;stop-opacity:1"
         offset="0"
         id="stop4189" />
      <stop
         style="stop-color:#556b2f;stop-opacity:1"
         offset="1"
         id="stop4191" />
    </linearGradient>
    <linearGradient
       y2="969.59912"
       x2="163.16324"
       y1="859.49908"
       x1="52.75938"
       gradientUnits="userSpaceOnUse"
       id="linearGradient4193"
       xlink:href="#linearGradient3672-6"
       inkscape:collect="always" />
    <linearGradient
       id="linearGradient4195">
      <stop
         style="stop-color:#006400;stop-opacity:1"
         offset="0"
         id="stop4197" />
      <stop
         style="stop-color:#556b2f;stop-opacity:1"
         offset="1"
         id="stop4199" />
    </linearGradient>
    <linearGradient
       y2="969.59912"
       x2="163.16324"
       y1="859.49908"
       x1="52.75938"
       gradientUnits="userSpaceOnUse"
       id="linearGradient4201"
       xlink:href="#linearGradient3672-6"
       inkscape:collect="always" />
    <linearGradient
       id="linearGradient4203">
      <stop
         style="stop-color:#006400;stop-opacity:1"
         offset="0"
         id="stop4205" />
      <stop
         style="stop-color:#556b2f;stop-opacity:1"
         offset="1"
         id="stop4207" />
    </linearGradient>
    <linearGradient
       y2="969.59912"
       x2="163.16324"
       y1="859.49908"
       x1="52.75938"
       gradientUnits="userSpaceOnUse"
       id="linearGradient4209"
       xlink:href="#linearGradient3672-6"
       inkscape:collect="always" />
    <linearGradient
       id="linearGradient4211">
      <stop
         style="stop-color:#006400;stop-opacity:1"
         offset="0"
         id="stop4213" />
      <stop
         style="stop-color:#556b2f;stop-opacity:1"
         offset="1"
         id="stop4215" />
    </linearGradient>
    <linearGradient
       y2="969.59912"
       x2="163.16324"
       y1="859.49908"
       x1="52.75938"
       gradientUnits="userSpaceOnUse"
       id="linearGradient4217"
       xlink:href="#linearGradient3672-6"
       inkscape:collect="always" />
    <linearGradient
       id="linearGradient4219">
      <stop
         style="stop-color:#006400;stop-opacity:1"
         offset="0"
         id="stop4221" />
      <stop
         style="stop-color:#556b2f;stop-opacity:1"
         offset="1"
         id="stop4223" />
    </linearGradient>
    <linearGradient
       y2="969.59912"
       x2="163.16324"
       y1="859.49908"
       x1="52.75938"
       gradientUnits="userSpaceOnUse"
       id="linearGradient4225"
       xlink:href="#linearGradient3672-6"
       inkscape:collect="always" />
    <linearGradient
       id="linearGradient4227">
      <stop
         style="stop-color:#006400;stop-opacity:1"
         offset="0"
         id="stop4229" />
      <stop
         style="stop-color:#556b2f;stop-opacity:1"
         offset="1"
         id="stop4231" />
    </linearGradient>
    <linearGradient
       y2="969.59912"
       x2="163.16324"
       y1="859.49908"
       x1="52.75938"
       gradientUnits="userSpaceOnUse"
       id="linearGradient4233"
       xlink:href="#linearGradient3672-6"
       inkscape:collect="always" />
    <linearGradient
       id="linearGradient4235">
      <stop
         style="stop-color:#006400;stop-opacity:1"
         offset="0"
         id="stop4237" />
      <stop
         style="stop-color:#556b2f;stop-opacity:1"
         offset="1"
         id="stop4239" />
    </linearGradient>
    <linearGradient
       y2="969.59912"
       x2="163.16324"
       y1="859.49908"
       x1="52.75938"
       gradientUnits="userSpaceOnUse"
       id="linearGradient4241"
       xlink:href="#linearGradient3672-6"
       inkscape:collect="always" />
    <linearGradient
       id="linearGradient4243">
      <stop
         style="stop-color:#006400;stop-opacity:1"
         offset="0"
         id="stop4245" />
      <stop
         style="stop-color:#556b2f;stop-opacity:1"
         offset="1"
         id="stop4247" />
    </linearGradient>
    <linearGradient
       y2="969.59912"
       x2="163.16324"
       y1="859.49908"
       x1="52.75938"
       gradientUnits="userSpaceOnUse"
       id="linearGradient4249"
       xlink:href="#linearGradient3672-6"
       inkscape:collect="always" />
    <linearGradient
       id="linearGradient4251">
      <stop
         style="stop-color:#006400;stop-opacity:1"
         offset="0"
         id="stop4253" />
      <stop
         style="stop-color:#556b2f;stop-opacity:1"
         offset="1"
         id="stop4255" />
    </linearGradient>
    <linearGradient
       y2="969.59912"
       x2="163.16324"
       y1="859.49908"
       x1="52.75938"
       gradientUnits="userSpaceOnUse"
       id="linearGradient4257"
       xlink:href="#linearGradient3672-6"
       inkscape:collect="always" />
    <linearGradient
       id="linearGradient4259">
      <stop
         style="stop-color:#006400;stop-opacity:1"
         offset="0"
         id="stop4261" />
      <stop
         style="stop-color:#556b2f;stop-opacity:1"
         offset="1"
         id="stop4263" />
    </linearGradient>
    <linearGradient
       y2="969.59912"
       x2="163.16324"
       y1="859.49908"
       x1="52.75938"
       gradientUnits="userSpaceOnUse"
       id="linearGradient4265"
       xlink:href="#linearGradient3672-6"
       inkscape:collect="always" />
    <linearGradient
       id="linearGradient4267">
      <stop
         style="stop-color:#006400;stop-opacity:1"
         offset="0"
         id="stop4269" />
      <stop
         style="stop-color:#556b2f;stop-opacity:1"
         offset="1"
         id="stop4271" />
    </linearGradient>
    <linearGradient
       y2="969.59912"
       x2="163.16324"
       y1="859.49908"
       x1="52.75938"
       gradientUnits="userSpaceOnUse"
       id="linearGradient4273"
       xlink:href="#linearGradient3672-6"
       inkscape:collect="always" />
    <linearGradient
       id="linearGradient4275">
      <stop
         style="stop-color:#006400;stop-opacity:1"
         offset="0"
         id="stop4277" />
      <stop
         style="stop-color:#556b2f;stop-opacity:1"
         offset="1"
         id="stop4279" />
    </linearGradient>
    <linearGradient
       y2="969.59912"
       x2="163.16324"
       y1="859.49908"
       x1="52.75938"
       gradientUnits="userSpaceOnUse"
       id="linearGradient4281"
       xlink:href="#linearGradient3672-6"
       inkscape:collect="always" />
    <linearGradient
       id="linearGradient4283">
      <stop
         style="stop-color:#006400;stop-opacity:1"
         offset="0"
         id="stop4285" />
      <stop
         style="stop-color:#556b2f;stop-opacity:1"
         offset="1"
         id="stop4287" />
    </linearGradient>
  </defs>
  <metadata
     id="metadata1906">
    <rdf:RDF>
      <cc:Work
         rdf:about="">
        <dc:format>image/svg+xml</dc:format>
        <dc:type
           rdf:resource="http://purl.org/dc/dcmitype/StillImage" />
        <dc:title />
      </cc:Work>
    </rdf:RDF>
  </metadata>
  <g
     sodipodi:insensitive="true"
     transform="translate(0,-748.36218)"
     id="layer1"
     inkscape:groupmode="layer"
     inkscape:label="bg">
    <rect
       transform="translate(0,748.36218)"
       y="0"
       x="0"
       height="304"
       width="404"
       id="rect2854"
       style="fill:url(#linearGradient3634);fill-opacity:1;stroke:none" />
  </g>
  <g
     inkscape:label="penta"
     id="layer2"
     inkscape:groupmode="layer"
     style="opacity:0.3">
    <g
       id="g9078"
       transform="matrix(0.98562511,0.16894719,-0.16894719,0.98562511,34.490613,-45.530349)">
      <path
         d="m 263.0947,188.52587 c -0.29037,1.21907 0.23446,3.15189 -0.19292,4.35548 -0.60187,1.42372 0.14152,2.58182 -0.96179,3.75901 -0.39098,0.96837 -1.46265,2.08142 -1.83826,3.0491 -0.33752,1.03083 -1.24916,1.87531 -1.80204,2.83731 1.95337,0.17104 3.93047,-0.76737 5.85345,0.23256 2.14354,0.38094 4.2706,0.61283 6.20972,1.7596 2.84547,0.80248 5.04022,2.90477 7.11184,4.92461 2.4503,1.26868 5.28127,1.6267 7.50558,3.27658 2.16174,2.43447 4.83109,4.33426 7.27383,6.28538 1.06573,0.94243 2.09353,2.21784 3.27621,2.96073 2.98282,0.0212 5.12315,2.54493 8.05101,2.89522 1.91429,0.93565 3.98454,1.6195 5.32044,3.38049 1.90778,1.82791 4.31604,3.33297 5.13156,6.05352 1.6839,2.64145 2.73471,5.94582 5.73521,7.41197 2.23911,2.13941 5.06785,3.43106 7.82161,4.73117 1.50484,0.94444 2.41366,2.71445 3.89708,3.70385 1.25043,1.90273 2.13487,4.0549 3.89313,5.62002 0.65242,2.63614 2.66366,4.99149 5.47239,5.3562 2.70308,1.75177 5.65968,3.78737 7.68061,6.07223 -0.80284,-1.67057 -1.15006,-3.39661 -1.5517,-5.1612 -1.48274,-1.81655 -1.83097,-4.13595 -2.1946,-6.3079 -0.52197,-1.90868 -2.07058,-3.33849 -2.83201,-5.1742 -1.2627,-1.05447 -0.47723,-3.02644 -0.80395,-4.4503 -0.76652,-2.04654 -0.82184,-4.53539 -2.70838,-5.9797 -0.37614,-1.65366 -1.5679,-2.67017 -2.63008,-3.8767 -0.42476,-1.91877 -2.61904,-2.78472 -2.834,-4.7718 -1.52011,-2.24214 -0.72899,-5.06844 -1.31449,-7.5315 -1.27733,-2.12089 -1.7472,-4.51669 -1.90793,-6.951 -0.37098,-3.10035 -1.6898,-5.98532 -2.18199,-9.0131 -0.42499,-1.33152 0.53267,-2.81212 -0.2101,-4.1787 -0.11745,-1.70063 -1.5192,-3.04262 -1.25161,-4.8331 -0.19936,-0.79415 -0.52724,-2.6759 -1.31497,-2.7146 -0.81452,0.65355 -1.44185,1.55103 -2.5115,1.89242 -1.00246,0.774 -2.38676,0.90184 -3.259,1.87768 -0.83876,0.63075 -1.38276,1.50605 -1.87094,2.3827 -0.67815,0.75245 -1.9321,1.58958 -2.6179,1.76013 1.07625,0.99806 1.73092,2.41688 2.31936,3.7619 1.14235,1.53623 0.66657,3.48767 1.60906,5.0811 0.005,1.31648 1.06588,2.33026 1.55843,3.4186 0.63646,1.65685 0.4096,3.44896 1.3106,4.9998 0.45495,1.48505 1.7083,2.81766 1.7111,4.5298 -0.15831,1.49824 0.92097,2.87028 0.38619,4.3438 0.14933,0.80547 -0.30474,2.04963 -0.44554,2.4755 -2.06412,-0.97676 -4.4138,-0.6882 -6.3586,-2.00784 -2.13235,-1.14539 -3.36171,-3.46077 -5.5227,-4.6922 -2.16314,-1.47407 -4.8715,-1.98278 -6.6976,-3.9009 -2.23564,-0.74705 -3.0869,-3.24452 -5.3296,-4.0785 -2.42159,-1.25234 -5.46208,-0.47607 -7.8279,-1.93337 -2.63701,-1.47357 -3.39394,-5.22628 -6.6867,-5.7361 -2.14477,-1.34403 -3.63272,-3.4945 -4.8682,-5.6474 -1.14182,-1.31272 -2.48602,-2.35439 -3.6144,-3.7348 -1.6045,-0.95952 -2.8913,-2.14334 -4.1807,-3.4651 -2.95394,-0.72038 -3.49205,-3.99794 -5.5094,-5.7236 -1.4128,-0.68211 -2.35795,-2.15303 -3.2892,-3.3383 m -8.22619,-25.75028 c -0.68503,1.80918 -0.35446,3.70839 -1.17444,5.461 -0.80071,1.74588 -2.3038,3.16346 -2.67132,5.0916 -0.60535,1.46887 -1.2451,2.97691 -2.12128,4.2927 -0.81063,1.69354 -2.33665,3.25715 -2.15793,5.2801 -0.11395,1.58197 -0.20653,3.23363 -0.80251,4.7406 -0.95742,1.40413 -1.19239,3.03386 -0.87651,4.6637 -0.31974,1.29752 -1.32065,2.49526 -1.2361,3.9429 0.30125,2.14035 -1.27092,3.69972 -2.19592,5.411 -0.67663,1.93712 -0.93156,3.91866 -1.47864,5.9125 -1.07369,2.04614 -2.25856,4.16585 -2.55628,6.5482 -1.80624,1.70355 -1.95622,4.4432 -3.9348,5.9546 -1.62711,1.25828 -2.05568,3.28587 -3.1905,4.923 -1.67295,0.75645 -2.35584,2.71164 -3.3036,4.1672 -0.90927,1.98397 -0.39131,4.25112 -1.14343,6.3473 0.82151,2.97448 -0.43767,5.81093 -0.15663,8.8628 -0.98188,2.58638 -1.00824,5.26859 -1.27427,7.9863 -1.28797,1.91346 0.55965,4.24053 -0.98396,6.1 -0.50576,2.81395 -3.62822,4.71416 -3.17617,7.845 -0.30378,1.02989 0.0963,2.20387 0.67405,0.6633 1.51145,-1.36306 3.36278,-2.17051 4.9029,-3.5089 1.30875,-0.75832 1.41381,-2.44158 2.9968,-2.8338 1.58941,-1.6542 3.9679,-1.87299 5.9496,-2.46655 1.57114,-0.44166 2.50929,-1.50132 3.2993,-2.84208 1.68763,-1.30857 3.77021,-2.4243 4.878,-4.3232 0.87595,-2.02739 2.71534,-3.48002 3.8623,-5.3776 1.61588,-1.67153 3.76483,-2.08146 5.9849,-2.2425 2.1277,-1.18037 3.76278,-3.06178 6.1143,-3.7578 2.63667,-1.11524 3.80063,-4.60159 6.8754,-4.9262 1.50784,-1.25508 3.21984,-2.06392 4.4097,-3.6686 1.17386,-1.26474 2.89809,-1.50445 4.279,-2.3492 1.29192,-0.9182 2.95233,-1.79538 3.7333,-3.1724 1.50187,-0.0677 3.25611,-1.10916 4.1231,-2.01269 -1.01697,-1.05005 -2.58588,-0.97829 -3.6133,-1.99051 -0.55765,-0.73591 -1.44828,-1.00371 -2.05838,-1.70529 -0.67658,-0.77821 -1.74757,-1.00347 -2.10229,-2.05504 -0.7718,-0.83744 -1.35514,-1.8663 -2.40506,-2.3931 -0.65413,-1.17654 -0.93295,0.78446 -1.7471,0.9515 -1.00922,0.94543 -2.08366,1.95797 -2.8958,2.95601 -2.06078,1.21421 -3.59293,3.32059 -6.1284,3.62704 -1.25913,1.29951 -3.27304,0.96761 -4.5338,2.25717 -1.20348,1.08862 -2.42676,2.22328 -3.8677,2.9192 -1.69837,0.72598 -2.44073,2.79228 -4.4263,3.0197 -0.56938,0.68171 -1.98728,0.99141 -2.406,1.17143 0.11043,-2.4362 1.96685,-4.15376 2.5558,-6.4606 1.5111,-1.89393 2.15297,-4.2531 3.18415,-6.4332 0.0828,-1.9618 -0.1834,-4.00436 1.13874,-5.6226 0.71862,-2.58865 0.51229,-5.46084 1.70843,-7.8208 0.86727,-1.28878 2.43802,-1.88751 2.8791,-3.5105 1.22058,-1.33453 1.29869,-3.42011 2.28175,-4.9435 -0.0218,-2.13297 2.37301,-3.80878 1.26784,-6.1136 0.66221,-2.30128 -0.76294,-4.29177 -0.69137,-6.544 0.42736,-2.34392 0.22543,-4.88402 1.61549,-6.987 0.63801,-2.19609 2.01768,-3.94927 3.4831,-5.6516 0.55701,-1.75672 0.50435,-3.90682 1.86171,-5.4089 -0.31773,-1.61777 1.63092,-2.7491 1.51863,-4.00962 -1.48047,-0.11873 -2.99365,0.12228 -4.4333,-0.27772 -1.34583,0.18308 -2.74525,-0.30447 -4.0836,0.2464 -1.25639,0.5379 -2.70569,0.01 -3.9965,0.48051 -0.53429,-0.24704 -1.19197,-0.41656 -1.772,-0.42155 m 133.66184,-16.36086 c -1.94642,0.83604 -4.05596,1.46813 -6.1214,0.80211 -2.12851,-0.13727 -3.93017,1.31107 -6.1526,0.87779 -2.31115,-0.14974 -4.77248,0.70875 -6.971,-0.39157 -2.13638,0.89834 -4.67869,-0.45024 -6.554,1.3299 -1.77532,0.44518 -3.37865,0.28293 -5.1705,0.40451 -2.19222,0.1397 -4.23009,-1.12538 -6.4122,-1.07531 -1.97843,-0.0431 -3.95229,-0.35821 -5.8567,-0.97685 -2.39142,-0.12551 -4.72746,1.09496 -7.0064,-0.19537 -1.61518,-0.83339 -3.57681,-0.64237 -5.19,-1.39615 -2.26752,-0.3393 -4.27105,1.29459 -6.6261,0.7749 -1.4295,1.05637 -3.37561,0.80742 -5.0029,1.1014 -1.70773,0.10239 -1.53737,-1.19885 -3.15526,-1.67837 -1.33285,-0.11664 -0.76575,2.09481 -1.73148,3.1 0.61985,0.99828 1.70519,1.6947 2.15978,2.72161 -0.49602,1.31659 -0.60395,2.75702 -0.38922,4.0368 0.58505,1.73125 -0.33551,1.06406 0.0654,2.88786 -0.23075,1.82949 1.18955,1.8474 2.52995,1.81073 1.46845,-0.35449 0.64506,-0.25423 2.14898,-0.20271 1.23954,0.42593 2.60513,-0.60284 3.8308,0.11506 2.01791,0.11014 3.97041,-1.48712 6.0224,-0.62341 1.19578,0.64684 2.70245,0.20798 3.9966,0.45803 1.52339,-0.0542 2.97763,0.43307 4.4829,-0.0831 1.18312,0.32251 2.44519,0.82028 3.5832,0.0729 0.63272,-0.14102 2.68816,-0.35838 1.0209,0.14491 -2.34104,1.23491 -4.92804,2.30925 -6.292,4.6984 -1.3558,1.68084 -3.32191,2.68701 -5.3019,3.34409 -2.40778,0.11248 -3.89606,1.95419 -5.3154,3.5695 -1.32432,1.5 -3.5085,1.44172 -4.7692,3.0002 -1.73715,1.26626 -2.59012,3.39756 -4.7743,4.1203 -2.07,2.02705 -4.72934,3.39256 -7.6598,3.31116 -1.55615,0.68188 -2.6921,2.00339 -4.1613,2.804 -2.29602,1.95002 -4.98236,3.46788 -7.6222,4.6941 -1.33283,1.04876 -2.08988,2.52111 -3.0974,3.7742 -1.99742,0.59358 -3.69513,1.70804 -4.7914,3.5414 -1.27113,0.92191 -2.66343,1.6645 -3.2225,3.248 -0.76408,0.81603 -2.2467,2.07664 -1.16474,3.1125 1.02401,0.98649 2.36989,1.56462 3.21966,2.76377 0.67186,0.62754 1.58646,0.88003 2.2391,1.50315 0.45817,0.73214 0.87941,1.3792 1.59506,1.8934 0.97078,1.03002 2.25065,1.56264 3.5037,2.15374 1.6072,-1.70514 3.63146,-3.65195 5.12156,-5.52937 2.724,-0.25528 3.9366,-2.96643 5.7106,-4.52702 1.40019,-2.57364 3.16609,-4.8594 4.67428,-7.40083 1.57985,-1.89218 1.57192,-5.14273 4.33652,-5.77018 1.20745,-1.27043 3.07991,-1.85443 4.36592,-2.82256 1.92438,-2.76319 5.0165,-4.49931 7.27458,-7.01268 2.05337,-0.63327 4.14573,-1.47633 5.68286,-3.07686 1.15213,-1.53053 2.68893,-2.55235 4.34846,-3.44176 0.92999,-1.32582 2.74398,-1.59619 3.89752,-2.62496 2.86417,-1.28283 4.74358,-4.3806 7.91089,-4.96518 1.71587,-0.48775 3.20077,-1.26157 4.33886,-2.64828 2.11137,-0.7408 3.71894,-2.40744 5.39372,-3.654 1.95575,-1.13544 4.4022,-0.53633 6.27836,-2.0073 2.31838,-1.27358 5.14855,-1.92817 6.41846,-4.58132 1.63385,-1.18775 3.48665,-1.67238 5.42956,-1.72431 1.40046,-0.80844 3.12231,-0.62472 4.21592,-2.0885 1.42275,-0.70477 3.10407,-1.49549 4.74167,-1.6638 m -207.15918,-0.009 c 0.81473,2.56826 2.62924,4.68701 4.1176,6.8673 1.54447,1.83198 4.24321,2.4422 5.1854,4.825 1.10563,0.6863 1.91949,1.874 3.0053,2.653 2.06056,1.6694 3.76489,4.11399 6.6415,4.4587 2.9087,0.71119 3.55838,4.18728 6.0222,5.5607 1.62265,1.19555 3.35835,2.21267 5.3758,2.7341 2.4682,0.70935 4.42931,2.19247 6.6207,3.423 2.46299,0.62638 4.4627,1.99162 6.6673,3.10873 2.85311,0.38905 4.77712,2.64831 7.3236,3.6859 1.30952,0.36841 2.21887,1.57563 3.5236,2.1609 1.79263,2.46102 5.38914,2.83657 7.0456,5.2226 0.45218,-1.42925 1.95244,-2.39772 1.89104,-4.0397 -0.0687,-0.93649 0.73729,-1.56594 0.92359,-2.4519 0.61783,-0.85475 -2.08517,-2.31537 -1.891,-3.37219 -0.0478,-1.27136 3.72275,-2.13768 3.59349,-3.37681 -1.3078,-1.33766 -3.40293,-1.41857 -4.8386,-2.57173 -0.88562,-0.6851 -1.54209,-1.64096 -2.609,-2.108 -0.86831,-1.13113 -2.18798,-1.78787 -2.7245,-3.1421 -0.5783,-1.58764 -2.12047,-2.48479 -3.7522,-2.27771 -1.73391,-0.48492 -3.12839,-1.68853 -4.7043,-2.51955 -1.1151,-1.24925 -3.12678,-1.25354 -3.9328,-2.92193 -0.66217,-0.71546 -1.7499,-1.85542 -2.0796,-2.4289 1.53032,0.24267 3.0557,0.79042 4.6139,0.28302 2.21818,0.66443 4.65896,0.46095 6.8389,-0.16047 1.7646,-0.37699 3.58266,0.60995 5.421,0.60818 1.97602,0.52831 4.17403,-1.60839 6.1264,-0.71145 1.90845,0.3385 3.75732,3.1643 5.6429,3.58164 1.75899,0.73186 3.83875,-0.98663 5.99378,-1.39021 1.32442,0.2929 3.67547,-0.99219 5.01796,-0.32968 2.64732,0.24264 2.74207,-2.10606 5.16766,-2.53336 1.37411,-0.16761 2.81482,4.59633 4.0399,3.61732 2.06308,-0.23647 4.1075,-0.87734 6.1811,-0.53147 2.62184,-1.37313 5.88068,-0.7763 8.6718,-0.18947 1.42621,-0.0134 2.97305,0.41511 4.3903,-0.2513 1.6506,-0.78362 3.79181,-1.00801 5.26681,-1.8257 0.17866,-1.43417 -1.4387,-3.00219 -0.69264,-4.1681 0.15765,-1.38213 -2.37466,-2.42021 -2.50631,-3.7586 -0.73035,-1.55065 0.74165,-3.44388 -0.39246,-4.8216 -1.42184,-2.35131 -4.77194,-0.54528 -6.84194,-2.03449 -1.59649,-0.36395 -3.42019,-0.0844 -5.07375,-0.4363 -1.53987,0.36093 -2.98507,1.15726 -4.50245,0.1858 -1.12808,-0.61063 -2.13691,-1.01433 -3.49014,-0.87385 -2.13486,-1.01189 -4.42719,0.71142 -6.74335,0.11301 -2.05524,0.162 -4.93082,0.59996 -6.74911,-0.0373 -2.90735,0.39231 -4.78033,-2.43315 -7.68001,-2.59306 -2.32488,-0.74769 -4.84791,-0.76549 -6.91625,-2.15452 -1.84285,-0.81552 -3.90386,-1.2176 -5.88402,-1.39202 -3.04278,0.53669 -5.86341,-1.70513 -8.91384,-0.67561 -3.07039,0.37564 -6.33358,0.929 -8.968,2.7026 -1.65905,0.78348 -3.39143,1.14367 -5.22294,1.00873 -2.56574,0.85584 -5.22784,-0.0798 -7.7481,0.6744 -2.59999,0.79763 -4.9949,2.26927 -7.67178,2.6067 -2.4225,0.40792 -4.84424,0.46951 -7.11868,1.4868 -2.53488,0.43908 -5.08701,-0.0549 -7.6043,0.0296 -1.31712,0.65537 -2.682,0.28487 -4.04138,0.46763 M 284.64689,70.841365 c -0.0751,1.753699 -0.86968,3.359462 -0.18038,5.10312 -0.55668,1.983868 -0.89939,3.992933 -1.50096,5.99307 0.0337,1.836674 0.073,3.629221 -0.0583,5.45408 0.19401,1.438578 -1.02202,2.614151 -0.7181,4.07532 -0.28662,1.45404 -0.74674,2.831252 -1.2247,4.20884 -0.81019,1.266666 -1.00955,2.895572 -1.9647,4.1417 -0.73848,1.938315 -0.89561,3.955925 -1.51285,5.875465 0.0472,2.21224 -1.6811,3.90768 -1.25545,6.19129 -0.13903,1.89475 -1.75521,3.17198 -2.05944,5.02221 -0.97324,1.79515 -1.75788,3.75295 -3.5312,4.9017 -0.88111,1.55961 -1.08083,3.46107 -2.2466,4.8711 -0.23476,1.79089 -1.26661,3.28823 -1.69292,5.03729 0.10321,1.95997 -0.22889,4.08702 -1.83937,5.4048 -0.98018,1.40813 -2.19099,2.70095 -3.1606,4.1121 -0.61134,0.49641 -1.44012,2.24454 -0.8626,2.60016 1.04987,-0.17575 2.12955,0.13417 3.1805,-0.33712 1.0491,0.25225 2.076,-0.49579 3.0744,-0.15194 1.0084,0.26997 2.00808,-0.29195 3.0534,-0.0767 1.47647,-0.37058 2.83197,0.58185 4.312,0.53663 1.05338,0.30869 0.88421,-1.32062 1.7053,-1.81788 0.58088,-1.2168 0.56454,-2.7419 1.58539,-3.7617 1.31695,-1.19782 1.21697,-3.02252 1.50329,-4.6406 0.48617,-1.69342 1.15037,-3.32761 2.58641,-4.4661 0.81029,-1.17484 1.22294,-2.55559 1.64206,-3.9074 0.6158,-1.79002 0.22164,-3.68819 0.67069,-5.4724 -0.16966,-1.31345 0.38,-2.58452 0.17574,-3.8927 0.19596,2.84917 0.13903,5.6348 0.37764,8.4749 -0.80484,1.9065 0.70321,3.684 0.25334,5.6123 0.42635,1.49188 1.10627,2.75703 1.66381,4.174 0.57523,1.61133 1.74119,2.85898 2.8102,4.199 0.86552,2.20172 3.60127,3.45547 3.33834,6.0818 0.12812,1.2767 0.24297,2.41644 1.0453,3.4885 0.55223,2.1373 1.34922,4.10024 1.70649,6.2832 0.80571,1.99325 0.4028,4.29356 1.97145,5.9455 0.96928,1.72701 1.45767,3.65913 2.87061,5.0761 1.06907,1.62779 2.06621,3.36119 2.1379,5.3384 1.03177,2.00008 1.65674,4.17112 3.40033,5.7058 0.23205,1.57233 0.67363,3.08119 0.30398,4.712 0.67136,1.24817 0.99884,3.3181 1.26455,4.2007 0.89391,-1.43298 2.69595,-1.87643 3.92846,-2.90949 0.6496,-0.66876 1.17057,-1.4192 1.71414,-2.1679 0.97783,-0.84727 2.53805,-0.81755 3.2133,-1.97607 0.71558,-0.50136 1.56729,-0.97225 2.2727,-1.32158 0.0407,-1.83987 -1.16535,-3.41962 -0.55358,-5.25433 -0.15546,-2.59769 1.75085,-4.78664 1.2026,-7.43588 1.15649,-3.08106 -2.86792,-5.22838 -2.45028,-8.43056 0.38405,-2.03555 -0.64961,-4.00518 -0.52982,-6.0669 -0.4475,-1.8007 0.42873,-3.72811 -0.6107,-5.47797 -0.37822,-2.04394 -2.07833,-3.67717 -2.3739,-5.83417 -1.65276,-1.54644 -2.5474,-3.56931 -2.01985,-5.86516 -0.23115,-2.17474 -1.09999,-4.20995 -2.633,-5.73152 -1.53607,-2.11851 -1.91321,-4.86244 -2.60029,-7.38335 -0.45824,-2.01143 -1.12895,-3.98348 -2.6027,-5.49368 -0.87341,-2.13878 -3.00419,-3.69885 -2.93517,-6.20693 0.15164,-2.46985 -1.54013,-4.55173 -1.42,-7.05809 -1.66461,-2.390306 -0.33437,-5.426532 -1.35815,-7.951942 -0.30407,-3.594498 -2.09096,-6.846055 -4.39975,-9.572969 -0.98584,-1.151471 -1.72404,-2.510239 -2.48822,-3.714543 -2.90032,-1.530242 -4.07305,-4.845597 -5.37575,-7.644265 -0.30925,-0.228907 -0.38932,-0.658147 -0.7964,-0.802109"
         style="fill:#556b2f;fill-opacity:1;fill-rule:evenodd;stroke:none;stroke-width:3.54299997999999983;marker:none;visibility:visible;display:inline;overflow:visible"
         id="path3223" />
      <path
         style="fill:none;stroke:#808000;stroke-width:7.08699989000000041;stroke-linecap:round;stroke-linejoin:bevel;stroke-miterlimit:4;stroke-opacity:1;stroke-dasharray:14.17399999999999949, 7.08699999999999974, 3.54349999999999987, 7.08699999999999974;stroke-dashoffset:0"
         d="m 393.87661,179.91778 c 0,60.20869 -48.86502,109.07371 -109.07371,109.07371 -60.20869,0 -109.07371,-48.86502 -109.07371,-109.07371 0,-60.20869 48.86502,-109.073715 109.07371,-109.073715 60.20869,0 109.07371,48.865025 109.07371,109.073715 z"
         id="path3159" />
    </g>
  </g>
  <g
     sodipodi:insensitive="true"
     inkscape:label="text"
     id="layer3"
     inkscape:groupmode="layer"
     style="opacity:1">
    <text
       id="text3636"
       y="297.03012"
       x="5.2898126"
       style="font-size:8px;font-style:normal;font-variant:normal;font-weight:bold;font-stretch:normal;fill:#000000;fill-opacity:1;stroke:none;font-family:OFL Sorts Mill Goudy;-inkscape-font-specification:OFL Sorts Mill Goudy Medium"
       xml:space="preserve"><tspan
         y="297.03012"
         x="5.2898126"
         id="tspan3638"
         sodipodi:role="line">Copyright © 2006-2010 Urpo Lankinen. Conman's Dictionary is distributed under GNU General Public License, v3.</tspan></text>
    <g
       transform="translate(0.87804906,-748.98136)"
       id="g3664">
      <text
         xml:space="preserve"
         style="font-size:30px;font-style:normal;font-variant:normal;font-weight:bold;font-stretch:normal;fill:#000000;fill-opacity:1;stroke:none;font-family:OFL Sorts Mill Goudy;-inkscape-font-specification:OFL Sorts Mill Goudy Medium"
         x="57.759995"
         y="847.8136"
         id="text2834"><tspan
           sodipodi:role="line"
           id="tspan2836"
           x="57.759995"
           y="847.8136"
           style="font-size:36px;font-style:italic;-inkscape-font-specification:Bitstream Vera Sans Oblique">Dictionary</tspan></text>
      <text
         xml:space="preserve"
         style="font-size:30px;font-style:normal;font-variant:normal;font-weight:bold;font-stretch:normal;fill:#000000;fill-opacity:1;stroke:none;font-family:OFL Sorts Mill Goudy;-inkscape-font-specification:OFL Sorts Mill Goudy Medium"
         x="34.308571"
         y="815.24219"
         id="text2838"><tspan
           sodipodi:role="line"
           id="tspan2840"
           x="34.308571"
           y="815.24219"
           style="font-size:40px">Conman's</tspan></text>
    </g>
    <text
       id="text2842"
       y="118.53774"
       x="209.3885"
       style="font-size:10px;font-style:normal;font-variant:normal;font-weight:bold;font-stretch:normal;text-align:justify;text-anchor:start;fill:url(#linearGradient3688-7);fill-opacity:1;stroke:none;font-family:OFL Sorts Mill Goudy;-inkscape-font-specification:OFL Sorts Mill Goudy Medium"
       xml:space="preserve"><tspan
         style="font-style:italic;font-variant:normal;font-weight:normal;font-stretch:normal;text-align:end;text-anchor:end;fill:url(#linearGradient3688-7);fill-opacity:1;font-family:Prociono;-inkscape-font-specification:Prociono Italic"
         y="118.53774"
         x="209.3885"
         id="tspan2844"
         sodipodi:role="line">(n.) <tspan
   id="tspan3649"
   style="font-style:normal;text-align:end;text-anchor:end;fill:url(#linearGradient3688-7);fill-opacity:1;-inkscape-font-specification:Prociono"><tspan
   id="tspan3651"
   style="font-weight:bold;text-align:end;text-anchor:end;fill:url(#linearGradient3688-7);fill-opacity:1;-inkscape-font-specification:Prociono Bold">1.</tspan> A piece of software for adequately</tspan></tspan><tspan
         id="tspan3653"
         style="font-style:normal;font-variant:normal;font-weight:normal;font-stretch:normal;text-align:end;text-anchor:end;fill:url(#linearGradient3688-7);fill-opacity:1;font-family:Prociono;-inkscape-font-specification:Prociono"
         y="131.03775"
         x="209.3885"
         sodipodi:role="line">managing one's dictionaries of constructed</tspan><tspan
         id="tspan3662"
         style="font-style:normal;font-variant:normal;font-weight:normal;font-stretch:normal;text-align:end;text-anchor:end;fill:url(#linearGradient3688-7);fill-opacity:1;font-family:Prociono;-inkscape-font-specification:Prociono"
         y="143.53775"
         x="209.3885"
         sodipodi:role="line">languages.</tspan><tspan
         id="tspan3678"
         style="font-style:normal;font-variant:normal;font-weight:normal;font-stretch:normal;text-align:end;text-anchor:end;fill:url(#linearGradient3688-7);fill-opacity:1;font-family:Prociono;-inkscape-font-specification:Prociono"
         y="156.03775"
         x="209.3885"
         sodipodi:role="line">2. A piece of software that uses a rather</tspan><tspan
         id="tspan3680"
         style="font-style:normal;font-variant:normal;font-weight:normal;font-stretch:normal;text-align:end;text-anchor:end;fill:url(#linearGradient3688-7);fill-opacity:1;font-family:Prociono;-inkscape-font-specification:Prociono"
         y="168.53775"
         x="209.3885"
         sodipodi:role="line">clichéd and predictable design in its splash</tspan><tspan
         id="tspan3682"
         style="font-style:normal;font-variant:normal;font-weight:normal;font-stretch:normal;text-align:end;text-anchor:end;fill:url(#linearGradient3688-7);fill-opacity:1;font-family:Prociono;-inkscape-font-specification:Prociono"
         y="181.03775"
         x="209.3885"
         sodipodi:role="line">screen graphics. I mean, <tspan
   id="tspan3684"
   style="font-style:italic;fill:url(#linearGradient3688-7);-inkscape-font-specification:Prociono Italic">really.</tspan> Look at this.</tspan><tspan
         id="tspan3690"
         style="font-style:normal;font-variant:normal;font-weight:normal;font-stretch:normal;text-align:end;text-anchor:end;fill:url(#linearGradient3688-7);fill-opacity:1;font-family:Prociono;-inkscape-font-specification:Prociono"
         y="193.53775"
         x="209.3885"
         sodipodi:role="line">Wow, it's a <tspan
   id="tspan3694"
   style="font-style:italic;fill:url(#linearGradient3688-7);-inkscape-font-specification:Prociono Italic">dictionary.</tspan> Well, I'll be damned.</tspan><tspan
         id="tspan3644"
         style="font-style:italic;font-variant:normal;font-weight:normal;font-stretch:normal;text-align:end;text-anchor:end;fill:url(#linearGradient3688-7);fill-opacity:1;font-family:Prociono;-inkscape-font-specification:Prociono Italic"
         y="206.03775"
         x="209.3885"
         sodipodi:role="line"><tspan
           id="tspan3642"
           style="font-style:normal;font-weight:bold;text-align:end;text-anchor:end;fill:url(#linearGradient3688-7);fill-opacity:1;-inkscape-font-specification:Prociono Bold">3.</tspan><tspan
           id="tspan2852"
           style="font-style:normal;text-align:end;text-anchor:end;fill:url(#linearGradient3688-7);fill-opacity:1;-inkscape-font-specification:Prociono"> A wholly inadequate application for</tspan></tspan><tspan
         id="tspan2850"
         style="font-style:normal;font-variant:normal;font-weight:normal;font-stretch:normal;text-align:end;text-anchor:end;fill:url(#linearGradient3688-7);fill-opacity:1;font-family:Prociono;-inkscape-font-specification:Prociono"
         y="218.53775"
         x="209.3885"
         sodipodi:role="line">almost any conceivable purpose. Avoid!</tspan></text>
  </g>
</svg>
